<mxfile host="app.diagrams.net" modified="2024-01-22T09:25:49.317Z" agent="Mozilla/5.0 (Windows NT 10.0; Win64; x64; rv:121.0) Gecko/20100101 Firefox/121.0" etag="yTCtabjdIX8IQF2N5pEG" version="22.1.18" type="device">
  <diagram name="Seite-1" id="JlZ2IHW5A352lo9bLOiP">
    <mxGraphModel dx="1467" dy="589" grid="1" gridSize="10" guides="1" tooltips="1" connect="1" arrows="1" fold="1" page="1" pageScale="1" pageWidth="827" pageHeight="1169" math="0" shadow="0">
      <root>
        <mxCell id="0" />
        <mxCell id="1" parent="0" />
        <mxCell id="mGoFA401bEEq0CO51sF0-44" value="" style="rounded=0;whiteSpace=wrap;html=1;" vertex="1" parent="1">
          <mxGeometry x="770" y="75" width="160" height="150" as="geometry" />
        </mxCell>
        <mxCell id="mGoFA401bEEq0CO51sF0-46" value="&lt;div&gt;Liste:&lt;/div&gt;&lt;div&gt;1. Name&lt;/div&gt;&lt;div&gt;2. Name&lt;/div&gt;&lt;div&gt;3. ...&lt;/div&gt;&lt;div&gt;...&lt;/div&gt;&lt;div&gt;.&lt;br&gt;&lt;/div&gt;" style="text;html=1;strokeColor=none;fillColor=none;align=center;verticalAlign=middle;whiteSpace=wrap;rounded=0;" vertex="1" parent="1">
          <mxGeometry x="770" y="85" width="160" height="100" as="geometry" />
        </mxCell>
        <mxCell id="mGoFA401bEEq0CO51sF0-8" value="" style="rounded=0;whiteSpace=wrap;html=1;" vertex="1" parent="1">
          <mxGeometry x="64" y="120" width="700" height="460" as="geometry" />
        </mxCell>
        <mxCell id="mGoFA401bEEq0CO51sF0-1" value="&lt;b&gt;&lt;u&gt;&lt;font style=&quot;font-size: 18px;&quot;&gt;Länder - Quiz&lt;/font&gt;&lt;/u&gt;&lt;/b&gt;" style="text;html=1;strokeColor=none;fillColor=none;align=center;verticalAlign=middle;whiteSpace=wrap;rounded=0;" vertex="1" parent="1">
          <mxGeometry x="331" width="166" height="30" as="geometry" />
        </mxCell>
        <mxCell id="mGoFA401bEEq0CO51sF0-2" value="User: Themen Interessierte, Freunde, Verwandte" style="text;html=1;strokeColor=none;fillColor=none;align=center;verticalAlign=middle;whiteSpace=wrap;rounded=0;" vertex="1" parent="1">
          <mxGeometry x="284" y="20" width="260" height="50" as="geometry" />
        </mxCell>
        <mxCell id="mGoFA401bEEq0CO51sF0-3" value="Spieler" style="rounded=1;whiteSpace=wrap;html=1;" vertex="1" parent="1">
          <mxGeometry x="237" y="70" width="110" height="40" as="geometry" />
        </mxCell>
        <mxCell id="mGoFA401bEEq0CO51sF0-4" value="Quiz" style="rounded=1;whiteSpace=wrap;html=1;" vertex="1" parent="1">
          <mxGeometry x="481" y="70" width="110" height="40" as="geometry" />
        </mxCell>
        <mxCell id="mGoFA401bEEq0CO51sF0-5" value="" style="endArrow=none;html=1;rounded=0;exitX=1;exitY=0.5;exitDx=0;exitDy=0;entryX=0;entryY=0.5;entryDx=0;entryDy=0;" edge="1" parent="1" source="mGoFA401bEEq0CO51sF0-3" target="mGoFA401bEEq0CO51sF0-6">
          <mxGeometry width="50" height="50" relative="1" as="geometry">
            <mxPoint x="597" y="210" as="sourcePoint" />
            <mxPoint x="647" y="160" as="targetPoint" />
          </mxGeometry>
        </mxCell>
        <mxCell id="mGoFA401bEEq0CO51sF0-6" value="1:n" style="rhombus;whiteSpace=wrap;html=1;" vertex="1" parent="1">
          <mxGeometry x="397" y="70" width="40" height="40" as="geometry" />
        </mxCell>
        <mxCell id="mGoFA401bEEq0CO51sF0-7" value="" style="endArrow=none;html=1;rounded=0;exitX=1;exitY=0.5;exitDx=0;exitDy=0;entryX=0;entryY=0.5;entryDx=0;entryDy=0;" edge="1" parent="1" source="mGoFA401bEEq0CO51sF0-6" target="mGoFA401bEEq0CO51sF0-4">
          <mxGeometry width="50" height="50" relative="1" as="geometry">
            <mxPoint x="431" y="89.44" as="sourcePoint" />
            <mxPoint x="481" y="89.44" as="targetPoint" />
            <Array as="points" />
          </mxGeometry>
        </mxCell>
        <mxCell id="mGoFA401bEEq0CO51sF0-9" value="&lt;div&gt;&lt;b&gt;&lt;u&gt;User Story: &lt;/u&gt;&lt;/b&gt;&lt;br&gt;Ich möchte Praxiserfahrung Sammeln und finde dies eine sehr gute Möglichkeit, desweiteren habe ich schon&lt;/div&gt;&lt;div&gt;erste Gedankliche Ideen solche Projekte auch im Privaten zu erstellen.&lt;/div&gt;&lt;div&gt;Vorallem kleine Quiz für meine Kids&lt;br&gt;&lt;/div&gt;" style="rounded=0;whiteSpace=wrap;html=1;" vertex="1" parent="1">
          <mxGeometry x="64" y="584.5" width="700" height="85" as="geometry" />
        </mxCell>
        <mxCell id="mGoFA401bEEq0CO51sF0-10" value="&lt;u&gt;&lt;b&gt;Button Funktionen:&lt;/b&gt;&lt;/u&gt;&lt;br&gt;&lt;b&gt;ButtonJetztSpielen:&lt;/b&gt; Sendet Namen + Passwort aus TextBox und Startet ausgewähltes Spiel aus RadioButton &lt;b&gt;-&amp;gt;&lt;/b&gt; &lt;u&gt;Öffnet neues Form&lt;/u&gt;&lt;b&gt;&lt;br&gt;RadioButton 1 - 3:&lt;/b&gt; Wählt die verschiedenen Quiz Möglichkeiten aus. || Ggf. CheckBox? erweiterbar U. Scrollbar&lt;b&gt;&lt;br&gt;TextBoxSeite 1...10:&lt;/b&gt; Zeigt an bei welcher Frage man ist.&lt;br&gt;&lt;b&gt;TextBox2Von10Richtige:&lt;/b&gt; Zeigt den aktuellen Score an.&lt;b&gt;&lt;br&gt;ButtonAntwort1-4:&lt;/b&gt; 3 Inkorrekte Antworten 1 Korrekte Antwort -&amp;gt; Smiley grins = richtig ;; Smiley traurig = falsch&lt;br&gt;&lt;b&gt;Smiley: &lt;/b&gt;Grinst = richtige Antwort -- Traurig = falsche Antwort" style="rounded=0;whiteSpace=wrap;html=1;" vertex="1" parent="1">
          <mxGeometry x="64" y="659.5" width="700" height="130.5" as="geometry" />
        </mxCell>
        <mxCell id="mGoFA401bEEq0CO51sF0-11" value="&lt;b&gt;&lt;u&gt;Umsetzungshinweis:&lt;/u&gt;&lt;/b&gt;&lt;br&gt;- Erstellen der Form sowie Platzizieren der Elemente &lt;br&gt;- Recherche für die Quiz Auswahl (Fragen, Antworten, 50 - 100 Länder (Hauptstadt, Land, Flagge)&lt;br&gt;&lt;div&gt;- Ordner Struktur für Bilder + Fragen erstellen&lt;br&gt;- Bilder/Flaggen raussuchen SOWIE Grinsender/Trauriger Smiley&lt;br&gt;- &lt;u&gt;Klassen Organisieren -&amp;gt; Logik aufbau Überlegen -&amp;gt; DRAN HALTEN!!!&lt;/u&gt;&lt;br&gt;&lt;/div&gt;&lt;div&gt;- &lt;u&gt;Informationen von Quiz + Fragen hinzufügen + Bilder einbinden&lt;/u&gt;&lt;br&gt;- &lt;u&gt;Länder + Hauptstadt + Flagge in eine Liste + 4 Dazugehörige Fragen&amp;nbsp;&lt;br&gt;&lt;/u&gt;- Quiz ist Sortier/Auswählbar&lt;br&gt;&lt;/div&gt;&lt;div&gt;- LOGIN zum SCHLUSS!!!&lt;br&gt;&lt;/div&gt;" style="rounded=0;whiteSpace=wrap;html=1;" vertex="1" parent="1">
          <mxGeometry x="64" y="780" width="700" height="160" as="geometry" />
        </mxCell>
        <mxCell id="mGoFA401bEEq0CO51sF0-12" value="" style="endArrow=none;html=1;rounded=0;" edge="1" parent="1">
          <mxGeometry width="50" height="50" relative="1" as="geometry">
            <mxPoint x="50" y="270" as="sourcePoint" />
            <mxPoint x="780" y="270" as="targetPoint" />
          </mxGeometry>
        </mxCell>
        <mxCell id="mGoFA401bEEq0CO51sF0-13" value="" style="endArrow=classic;html=1;rounded=0;" edge="1" parent="1">
          <mxGeometry relative="1" as="geometry">
            <mxPoint x="30" y="210" as="sourcePoint" />
            <mxPoint x="30" y="380" as="targetPoint" />
          </mxGeometry>
        </mxCell>
        <mxCell id="mGoFA401bEEq0CO51sF0-14" value="&lt;div&gt;Hauptseite&lt;/div&gt;&lt;div&gt;zu&lt;/div&gt;&lt;div&gt;Quiz&lt;br&gt;&lt;/div&gt;" style="edgeLabel;resizable=0;html=1;align=center;verticalAlign=middle;" connectable="0" vertex="1" parent="mGoFA401bEEq0CO51sF0-13">
          <mxGeometry relative="1" as="geometry" />
        </mxCell>
        <mxCell id="mGoFA401bEEq0CO51sF0-15" value="Login:" style="text;html=1;strokeColor=none;fillColor=none;align=center;verticalAlign=middle;whiteSpace=wrap;rounded=0;" vertex="1" parent="1">
          <mxGeometry x="64" y="120" width="60" height="30" as="geometry" />
        </mxCell>
        <mxCell id="mGoFA401bEEq0CO51sF0-16" value="TextBoxName:" style="text;html=1;strokeColor=none;fillColor=none;align=center;verticalAlign=middle;whiteSpace=wrap;rounded=0;" vertex="1" parent="1">
          <mxGeometry x="110" y="150" width="60" height="30" as="geometry" />
        </mxCell>
        <mxCell id="mGoFA401bEEq0CO51sF0-17" value="TextBoxPasswort:" style="text;html=1;strokeColor=none;fillColor=none;align=center;verticalAlign=middle;whiteSpace=wrap;rounded=0;" vertex="1" parent="1">
          <mxGeometry x="110" y="180" width="60" height="30" as="geometry" />
        </mxCell>
        <mxCell id="mGoFA401bEEq0CO51sF0-18" value="Mögliche Quiz Auswahl:" style="text;html=1;strokeColor=none;fillColor=none;align=center;verticalAlign=middle;whiteSpace=wrap;rounded=0;" vertex="1" parent="1">
          <mxGeometry x="501" y="130" width="90" height="30" as="geometry" />
        </mxCell>
        <mxCell id="mGoFA401bEEq0CO51sF0-24" value="Seite 1 .... 10" style="text;html=1;strokeColor=none;fillColor=none;align=center;verticalAlign=middle;whiteSpace=wrap;rounded=0;" vertex="1" parent="1">
          <mxGeometry x="379" y="270" width="70" height="30" as="geometry" />
        </mxCell>
        <mxCell id="mGoFA401bEEq0CO51sF0-25" value="" style="ellipse;whiteSpace=wrap;html=1;aspect=fixed;" vertex="1" parent="1">
          <mxGeometry x="610" y="170" width="10" height="10" as="geometry" />
        </mxCell>
        <mxCell id="mGoFA401bEEq0CO51sF0-26" value="" style="ellipse;whiteSpace=wrap;html=1;aspect=fixed;" vertex="1" parent="1">
          <mxGeometry x="610" y="205" width="10" height="10" as="geometry" />
        </mxCell>
        <mxCell id="mGoFA401bEEq0CO51sF0-27" value="" style="ellipse;whiteSpace=wrap;html=1;aspect=fixed;" vertex="1" parent="1">
          <mxGeometry x="610" y="245" width="10" height="10" as="geometry" />
        </mxCell>
        <mxCell id="mGoFA401bEEq0CO51sF0-28" value="&lt;br&gt;RadioButton Quiz Geographie Flaggen&lt;br&gt;" style="text;html=1;strokeColor=none;fillColor=none;align=center;verticalAlign=middle;whiteSpace=wrap;rounded=0;" vertex="1" parent="1">
          <mxGeometry x="635" y="150" width="110" height="30" as="geometry" />
        </mxCell>
        <mxCell id="mGoFA401bEEq0CO51sF0-29" value="&lt;br&gt;RadioButton Quiz Geographie Haupstädte" style="text;html=1;strokeColor=none;fillColor=none;align=center;verticalAlign=middle;whiteSpace=wrap;rounded=0;" vertex="1" parent="1">
          <mxGeometry x="630" y="185" width="130" height="30" as="geometry" />
        </mxCell>
        <mxCell id="mGoFA401bEEq0CO51sF0-30" value="&lt;br&gt;RadioButton Quiz Geographie Länder" style="text;html=1;strokeColor=none;fillColor=none;align=center;verticalAlign=middle;whiteSpace=wrap;rounded=0;" vertex="1" parent="1">
          <mxGeometry x="630" y="225" width="120" height="30" as="geometry" />
        </mxCell>
        <mxCell id="mGoFA401bEEq0CO51sF0-33" value="Jetzt &quot;Auswahl&quot; Spielen!" style="rounded=0;whiteSpace=wrap;html=1;" vertex="1" parent="1">
          <mxGeometry x="451" y="195" width="140" height="30" as="geometry" />
        </mxCell>
        <mxCell id="mGoFA401bEEq0CO51sF0-34" value="BILD" style="rounded=0;whiteSpace=wrap;html=1;" vertex="1" parent="1">
          <mxGeometry x="264" y="300" width="300" height="140" as="geometry" />
        </mxCell>
        <mxCell id="mGoFA401bEEq0CO51sF0-35" value="Antwort 1" style="rounded=0;whiteSpace=wrap;html=1;" vertex="1" parent="1">
          <mxGeometry x="264" y="470" width="130" height="40" as="geometry" />
        </mxCell>
        <mxCell id="mGoFA401bEEq0CO51sF0-36" value="Antwort 3" style="rounded=0;whiteSpace=wrap;html=1;" vertex="1" parent="1">
          <mxGeometry x="264" y="530" width="130" height="40" as="geometry" />
        </mxCell>
        <mxCell id="mGoFA401bEEq0CO51sF0-37" value="Antwort 4" style="rounded=0;whiteSpace=wrap;html=1;" vertex="1" parent="1">
          <mxGeometry x="434" y="530" width="130" height="40" as="geometry" />
        </mxCell>
        <mxCell id="mGoFA401bEEq0CO51sF0-38" value="Antwort 2" style="rounded=0;whiteSpace=wrap;html=1;" vertex="1" parent="1">
          <mxGeometry x="434" y="470" width="130" height="40" as="geometry" />
        </mxCell>
        <mxCell id="mGoFA401bEEq0CO51sF0-40" value="2 Von 10 Richtige" style="text;html=1;strokeColor=none;fillColor=none;align=center;verticalAlign=middle;whiteSpace=wrap;rounded=0;" vertex="1" parent="1">
          <mxGeometry x="110" y="300" width="70" height="30" as="geometry" />
        </mxCell>
        <mxCell id="mGoFA401bEEq0CO51sF0-41" value="Hier steht ein text mit einer Frage im Bezug zu dem oben genannten Bild?" style="text;html=1;strokeColor=none;fillColor=none;align=center;verticalAlign=middle;whiteSpace=wrap;rounded=0;" vertex="1" parent="1">
          <mxGeometry x="264" y="440" width="300" height="30" as="geometry" />
        </mxCell>
        <mxCell id="mGoFA401bEEq0CO51sF0-42" value="" style="endArrow=classic;html=1;rounded=0;" edge="1" parent="1">
          <mxGeometry relative="1" as="geometry">
            <mxPoint x="630" y="134.44" as="sourcePoint" />
            <mxPoint x="784" y="134.44" as="targetPoint" />
          </mxGeometry>
        </mxCell>
        <mxCell id="mGoFA401bEEq0CO51sF0-43" value="&lt;div&gt;Highscore&lt;/div&gt;&lt;div&gt;Anzeigen&lt;br&gt;&lt;/div&gt;" style="edgeLabel;resizable=0;html=1;align=center;verticalAlign=middle;" connectable="0" vertex="1" parent="mGoFA401bEEq0CO51sF0-42">
          <mxGeometry relative="1" as="geometry" />
        </mxCell>
        <mxCell id="mGoFA401bEEq0CO51sF0-47" value="&lt;div&gt;Smiley für richtig u.&lt;/div&gt;&lt;div&gt;falsch&lt;br&gt;&lt;/div&gt;" style="ellipse;whiteSpace=wrap;html=1;aspect=fixed;" vertex="1" parent="1">
          <mxGeometry x="630" y="330" width="80" height="80" as="geometry" />
        </mxCell>
        <mxCell id="mGoFA401bEEq0CO51sF0-48" value="&lt;div&gt;Highscore&amp;nbsp;&lt;/div&gt;&lt;div&gt;anzeigen&lt;/div&gt;" style="rounded=0;whiteSpace=wrap;html=1;" vertex="1" parent="1">
          <mxGeometry x="239" y="195" width="140" height="30" as="geometry" />
        </mxCell>
      </root>
    </mxGraphModel>
  </diagram>
</mxfile>
